<svg width="214" height="123" viewBox="0 0 214 123" fill="none" xmlns="http://www.w3.org/2000/svg">
<path d="M46.6597 32.5346L46.6597 39.5112C60.1623 42.0815 79.9573 34.0666 102.193 45.1557C75.9212 24.5197 46.6597 32.5346 46.6597 32.5346Z" fill="white"/>
<path d="M161.275 58.6083L163.105 34.4092C163.105 34.4092 129.65 33.1831 102.473 43.6092C75.2958 33.1831 42.7402 36.7969 42.7402 36.7969L43.7926 58.6083C34.5306 60.2123 27.0356 62.1466 21.978 64.3639C39.0397 60.2123 68.7149 57.4289 102.473 57.4289C136.23 57.4289 165.906 60.1652 182.967 64.3639C177.971 62.1466 170.537 60.2123 161.275 58.6083Z" fill="white"/>
<path d="M159.408 32.3835L159.408 39.36C145.906 41.9304 126.111 33.9155 103.876 45.0046C130.147 24.3686 159.408 32.3835 159.408 32.3835Z" fill="white"/>
<mask id="path-4-inside-1_346_2266" fill="white">
<path fill-rule="evenodd" clip-rule="evenodd" d="M76.2196 13.7958C80.7722 5.60942 90.0803 0 100.823 0C111.572 0 120.884 5.61549 125.434 13.809C137.297 14.8355 146.852 22.6304 147.87 32.9723C149.05 44.9529 138.325 55.8148 123.917 57.2331C115.226 58.0885 107.18 55.313 101.904 50.3466C101.546 50.3592 101.185 50.3656 100.823 50.3656C98.8863 50.3656 96.9961 50.1832 95.172 49.8363C89.7059 55.5168 80.7406 58.5295 71.2202 57.0938C56.904 54.9349 46.7537 43.5347 48.5488 31.6309C50.2809 20.1445 62.5024 12.3862 76.2196 13.7958Z"/>
</mask>
<path d="M76.2196 13.7958L75.611 19.7188L79.5156 20.1201L81.4233 16.6896L76.2196 13.7958ZM125.434 13.809L120.229 16.6997L121.766 19.4682L124.921 19.7411L125.434 13.809ZM147.87 32.9723L153.796 32.389L153.796 32.389L147.87 32.9723ZM123.917 57.2331L124.5 63.1587L123.917 57.2331ZM101.904 50.3466L105.986 46.011L104.177 44.3086L101.695 44.396L101.904 50.3466ZM95.172 49.8363L96.2844 43.9869L93.1171 43.3846L90.8815 45.7077L95.172 49.8363ZM71.2202 57.0938L70.3323 62.9815L71.2202 57.0938ZM48.5488 31.6309L54.4365 32.5188L48.5488 31.6309ZM81.4233 16.6896C84.8727 10.487 92.1312 5.95427 100.823 5.95427V-5.95427C88.0294 -5.95427 76.6717 0.731811 71.0159 10.9019L81.4233 16.6896ZM100.823 5.95427C109.52 5.95427 116.781 10.492 120.229 16.6997L130.64 10.9184C124.987 0.739016 113.624 -5.95427 100.823 -5.95427V5.95427ZM124.921 19.7411C134.78 20.5943 141.284 26.8418 141.945 33.5556L153.796 32.389C152.421 18.419 139.814 9.0768 125.947 7.87694L124.921 19.7411ZM141.945 33.5556C142.706 41.2868 135.54 50.1059 123.334 51.3074L124.5 63.1587C141.111 61.5237 155.394 48.6189 153.796 32.389L141.945 33.5556ZM123.334 51.3074C116.2 52.0097 109.9 49.696 105.986 46.011L97.8232 54.6821C104.461 60.9301 114.253 64.1674 124.5 63.1587L123.334 51.3074ZM101.695 44.396C101.406 44.4062 101.115 44.4113 100.823 44.4113V56.3198C101.255 56.3198 101.685 56.3122 102.114 56.2971L101.695 44.396ZM100.823 44.4113C99.2605 44.4113 97.7427 44.2642 96.2844 43.9869L94.0596 55.6858C96.2495 56.1022 98.5122 56.3198 100.823 56.3198V44.4113ZM90.8815 45.7077C86.9057 49.8395 79.946 52.388 72.1081 51.2061L70.3323 62.9815C81.5353 64.6709 92.5062 61.194 99.4625 53.9649L90.8815 45.7077ZM72.1081 51.2061C59.9797 49.3771 53.2781 40.2005 54.4365 32.5188L42.6611 30.743C40.2293 46.869 53.8283 60.4926 70.3323 62.9815L72.1081 51.2061ZM54.4365 32.5188C55.556 25.0946 64.0415 18.53 75.611 19.7188L76.8283 7.87268C60.9633 6.24245 45.0058 15.1945 42.6611 30.743L54.4365 32.5188Z" fill="white" mask="url(#path-4-inside-1_346_2266)"/>
<path fill-rule="evenodd" clip-rule="evenodd" d="M90.7618 25.942C88.7098 25.942 87.0463 24.2785 87.0463 22.2265C87.0463 20.1745 88.7098 18.511 90.7618 18.511C92.8138 18.511 94.4773 20.1745 94.4773 22.2265C94.4773 24.2785 92.8138 25.942 90.7618 25.942ZM90.2256 22.3917C89.4732 22.3917 88.8632 21.7818 88.8632 21.0294C88.8632 20.277 89.4732 19.6671 90.2256 19.6671C90.978 19.6671 91.5879 20.277 91.5879 21.0294C91.5879 21.7818 90.978 22.3917 90.2256 22.3917Z" fill="white"/>
<path fill-rule="evenodd" clip-rule="evenodd" d="M109.808 26.2401C107.756 26.2401 106.092 24.5766 106.092 22.5246C106.092 20.4726 107.756 18.8091 109.808 18.8091C111.86 18.8091 113.523 20.4726 113.523 22.5246C113.523 24.5766 111.86 26.2401 109.808 26.2401ZM109.271 22.6899C108.519 22.6899 107.909 22.0799 107.909 21.3275C107.909 20.5751 108.519 19.9652 109.271 19.9652C110.024 19.9652 110.634 20.5751 110.634 21.3275C110.634 22.0799 110.024 22.6899 109.271 22.6899Z" fill="white"/>
<path d="M97.1609 30.1118C100.075 31.6204 101.592 31.6529 104.055 30.1118" stroke="white" stroke-width="1.65133" stroke-linecap="round"/>
<path d="M14.8822 104.135C12.4646 104.135 10.2982 103.742 8.38302 102.957C6.46779 102.173 4.92934 101.011 3.76765 99.4724C2.63735 97.9339 2.04081 96.0815 1.97802 93.9151H10.5494C10.675 95.1396 11.0989 96.0815 11.821 96.7408C12.5431 97.3688 13.485 97.6827 14.6467 97.6827C15.8398 97.6827 16.7817 97.4159 17.4725 96.8821C18.1632 96.317 18.5086 95.5477 18.5086 94.5744C18.5086 93.7581 18.226 93.0831 17.6608 92.5493C17.1271 92.0156 16.4521 91.576 15.6357 91.2307C14.8508 90.8853 13.7205 90.4928 12.2449 90.0533C10.1099 89.3939 8.36732 88.7346 7.01724 88.0752C5.66717 87.4159 4.50548 86.4426 3.53217 85.1553C2.55886 83.868 2.07221 82.1883 2.07221 80.1161C2.07221 77.0392 3.1868 74.6373 5.41599 72.9105C7.64518 71.1522 10.5494 70.2731 14.1287 70.2731C17.7707 70.2731 20.7064 71.1522 22.9356 72.9105C25.1647 74.6373 26.3578 77.0549 26.5148 80.1632H17.8021C17.7393 79.0957 17.3469 78.2637 16.6247 77.6671C15.9026 77.0392 14.9764 76.7252 13.8461 76.7252C12.8728 76.7252 12.0879 76.9921 11.4913 77.5258C10.8948 78.0282 10.5965 78.766 10.5965 79.7393C10.5965 80.8068 11.0989 81.6388 12.1036 82.2354C13.1083 82.8319 14.6781 83.4756 16.8131 84.1663C18.9481 84.8884 20.675 85.5792 21.9936 86.2385C23.3437 86.8979 24.5054 87.8555 25.4787 89.1114C26.452 90.3672 26.9387 91.9842 26.9387 93.9622C26.9387 95.846 26.452 97.5572 25.4787 99.0956C24.5368 100.634 23.1553 101.859 21.3343 102.769C19.5133 103.68 17.3626 104.135 14.8822 104.135ZM48.0485 77.2433C51.0627 77.2433 53.4802 78.248 55.3013 80.2574C57.1223 82.2354 58.0328 84.9669 58.0328 88.452V103.805H50.0266V89.5352C50.0266 87.777 49.5713 86.4112 48.6608 85.4379C47.7503 84.4646 46.5258 83.9779 44.9873 83.9779C43.4489 83.9779 42.2244 84.4646 41.3139 85.4379C40.4034 86.4112 39.9481 87.777 39.9481 89.5352V103.805H31.8948V68.9544H39.9481V81.058C40.7644 79.8963 41.879 78.9701 43.2919 78.2794C44.7048 77.5886 46.2903 77.2433 48.0485 77.2433ZM62.0278 90.6184C62.0278 87.9183 62.5302 85.5478 63.5349 83.507C64.571 81.4662 65.9682 79.8963 67.7264 78.7974C69.4846 77.6985 71.447 77.1491 73.6134 77.1491C75.4658 77.1491 77.0827 77.5258 78.4642 78.2794C79.8771 79.0329 80.9603 80.0219 81.7138 81.2464V77.5258H89.7671V103.805H81.7138V100.085C80.9289 101.309 79.83 102.298 78.4171 103.052C77.0356 103.805 75.4187 104.182 73.5663 104.182C71.4313 104.182 69.4846 103.632 67.7264 102.534C65.9682 101.403 64.571 99.8177 63.5349 97.7769C62.5302 95.7047 62.0278 93.3186 62.0278 90.6184ZM81.7138 90.6655C81.7138 88.6561 81.1486 87.0705 80.0184 85.9088C78.9195 84.7472 77.5694 84.1663 75.9681 84.1663C74.3669 84.1663 73.0011 84.7472 71.8708 85.9088C70.7719 87.0391 70.2225 88.609 70.2225 90.6184C70.2225 92.6278 70.7719 94.2291 71.8708 95.4222C73.0011 96.5839 74.3669 97.1647 75.9681 97.1647C77.5694 97.1647 78.9195 96.5839 80.0184 95.4222C81.1486 94.2605 81.7138 92.6749 81.7138 90.6655ZM103.647 81.9057C104.589 80.4615 105.766 79.3312 107.179 78.5148C108.592 77.6671 110.162 77.2433 111.888 77.2433V85.7676H109.675C107.666 85.7676 106.158 86.2071 105.154 87.0862C104.149 87.934 103.647 89.441 103.647 91.6074V103.805H95.5934V77.5258H103.647V81.9057ZM140.51 90.2416C140.51 90.9952 140.463 91.7801 140.369 92.5964H122.143C122.268 94.2291 122.786 95.485 123.697 96.3641C124.639 97.2118 125.785 97.6357 127.135 97.6357C129.144 97.6357 130.541 96.7879 131.326 95.0925H139.898C139.458 96.8193 138.658 98.3735 137.496 99.755C136.366 101.136 134.937 102.22 133.21 103.005C131.483 103.789 129.552 104.182 127.417 104.182C124.843 104.182 122.551 103.632 120.542 102.534C118.532 101.435 116.962 99.8648 115.832 97.824C114.702 95.7832 114.137 93.397 114.137 90.6655C114.137 87.934 114.686 85.5478 115.785 83.507C116.915 81.4662 118.485 79.8963 120.494 78.7974C122.504 77.6985 124.812 77.1491 127.417 77.1491C129.961 77.1491 132.221 77.6828 134.199 78.7503C136.177 79.8178 137.716 81.3406 138.815 83.3186C139.945 85.2966 140.51 87.6043 140.51 90.2416ZM132.268 88.1223C132.268 86.7409 131.797 85.642 130.855 84.8257C129.914 84.0093 128.736 83.6012 127.323 83.6012C125.973 83.6012 124.827 83.9936 123.885 84.7786C122.975 85.5635 122.41 86.6781 122.19 88.1223H132.268ZM152.812 70.7441V103.805H144.759V70.7441H152.812ZM182.431 70.7441V77.1962H173.672V103.805H165.618V77.1962H156.858V70.7441H182.431ZM198.435 104.135C196.018 104.135 193.851 103.742 191.936 102.957C190.021 102.173 188.483 101.011 187.321 99.4724C186.191 97.9339 185.594 96.0815 185.531 93.9151H194.103C194.228 95.1396 194.652 96.0815 195.374 96.7408C196.096 97.3688 197.038 97.6827 198.2 97.6827C199.393 97.6827 200.335 97.4159 201.026 96.8821C201.716 96.317 202.062 95.5477 202.062 94.5744C202.062 93.7581 201.779 93.0831 201.214 92.5493C200.68 92.0156 200.005 91.576 199.189 91.2307C198.404 90.8853 197.274 90.4928 195.798 90.0533C193.663 89.3939 191.921 88.7346 190.57 88.0752C189.22 87.4159 188.059 86.4426 187.085 85.1553C186.112 83.868 185.625 82.1883 185.625 80.1161C185.625 77.0392 186.74 74.6373 188.969 72.9105C191.198 71.1522 194.103 70.2731 197.682 70.2731C201.324 70.2731 204.26 71.1522 206.489 72.9105C208.718 74.6373 209.911 77.0549 210.068 80.1632H201.355C201.293 79.0957 200.9 78.2637 200.178 77.6671C199.456 77.0392 198.53 76.7252 197.399 76.7252C196.426 76.7252 195.641 76.9921 195.045 77.5258C194.448 78.0282 194.15 78.766 194.15 79.7393C194.15 80.8068 194.652 81.6388 195.657 82.2354C196.662 82.8319 198.231 83.4756 200.366 84.1663C202.501 84.8884 204.228 85.5792 205.547 86.2385C206.897 86.8979 208.059 87.8555 209.032 89.1114C210.005 90.3672 210.492 91.9842 210.492 93.9622C210.492 95.846 210.005 97.5572 209.032 99.0956C208.09 100.634 206.709 101.859 204.888 102.769C203.067 103.68 200.916 104.135 198.435 104.135Z" fill="white"/>
</svg>
