<svg width="19" height="21" viewBox="0 0 19 21" fill="none" xmlns="http://www.w3.org/2000/svg">
<path d="M0.708961 6.20687L0.023797 10.3137C-0.0164099 10.5544 -0.00535679 10.8013 0.0561848 11.0371C0.117725 11.2729 0.228268 11.492 0.380078 11.6789C0.531889 11.8659 0.721302 12.0162 0.93507 12.1195C1.14884 12.2227 1.3818 12.2763 1.61766 12.2765H6.65289C6.7704 12.2765 6.88651 12.303 6.99315 12.3541C7.09979 12.4052 7.1944 12.4798 7.27042 12.5726C7.34644 12.6654 7.40203 12.7742 7.43335 12.8915C7.46466 13.0088 7.47095 13.1318 7.45176 13.2519L6.80742 17.3235C6.70334 17.9846 6.73312 18.6609 6.89488 19.3094C6.96472 19.5772 7.09855 19.8224 7.28404 20.0224C7.46953 20.2224 7.70068 20.3708 7.95616 20.4539L8.09708 20.5012C8.41574 20.6068 8.76131 20.5823 9.06312 20.4328C9.39355 20.2677 9.63457 19.9667 9.72398 19.6094L10.1866 17.7634C10.3336 17.1758 10.5476 16.6085 10.8241 16.0733C11.2275 15.2912 11.8514 14.6641 12.5006 14.0853L13.8991 12.8372C14.0931 12.6635 14.2447 12.4447 14.3413 12.1987C14.4379 11.9527 14.4769 11.6865 14.455 11.4219L13.6659 1.96717C13.6311 1.54903 13.4462 1.1596 13.1477 0.875776C12.8492 0.591953 12.4588 0.434376 12.0535 0.43416H7.53631C4.15228 0.43416 1.26487 2.87611 0.708961 6.20687Z" fill="#BABABA"/>
<path fill-rule="evenodd" clip-rule="evenodd" d="M17.524 13.932C17.3362 13.9405 17.1525 13.8735 17.0112 13.745C16.87 13.6166 16.7821 13.4365 16.766 13.2425L15.8233 1.93264C15.8073 1.76422 15.8247 1.59419 15.8743 1.43295C15.9239 1.2717 16.0047 1.12262 16.1118 0.994816C16.2189 0.867006 16.35 0.763151 16.4972 0.689592C16.6443 0.616034 16.8044 0.574314 16.9677 0.566984C17.1309 0.559654 17.2939 0.586866 17.4466 0.646959C17.5994 0.707051 17.7387 0.798763 17.8561 0.916492C17.9734 1.03422 18.0664 1.1755 18.1293 1.33169C18.1922 1.48788 18.2237 1.65571 18.2218 1.82494V13.1781C18.2218 13.3727 18.1491 13.5597 18.0191 13.7002C17.8891 13.8407 17.7118 13.9237 17.524 13.932Z" fill="#BABABA"/>
</svg>
