<svg width="186" height="127" viewBox="0 0 186 127" fill="none" xmlns="http://www.w3.org/2000/svg">
<path d="M143.727 50.9227C143.654 50.9227 143.584 50.9312 143.516 50.9481C142.488 36.7446 135.981 23.4959 125.369 13.9978C114.757 4.49975 100.869 -0.504799 86.6362 0.0402786C72.4035 0.585356 58.9393 6.63743 49.0848 16.9193C39.2303 27.2013 33.7564 40.9088 33.8182 55.1492C33.8348 59.4763 34.3627 63.7862 35.3907 67.9894C34.8581 67.964 34.3593 67.8288 33.8182 67.8288C24.849 67.8288 16.2473 71.3911 9.90512 77.7321C3.56298 84.0731 0 92.6734 0 101.641C0 111.801 4.57391 120.804 11.6673 127H168.863C179.203 119.299 186 107.076 186 93.1879C186 87.6375 184.907 82.1415 182.782 77.0137C180.658 71.8858 177.544 67.2266 173.619 63.3019C169.693 59.3772 165.033 56.264 159.904 54.14C154.776 52.0159 149.279 50.9227 143.727 50.9227Z" fill="#8AC2C9"/>
</svg>
