<svg width="354" height="280" viewBox="0 0 354 280" fill="none" xmlns="http://www.w3.org/2000/svg">
<g filter="url(#filter0_d_643_1896)">
<mask id="path-1-inside-1_643_1896" fill="white">
<path fill-rule="evenodd" clip-rule="evenodd" d="M262.967 93.1264C305.499 101.764 334.766 136.741 328.826 172.709C322.719 209.683 281.721 233.703 237.255 226.359C213.591 222.45 193.714 210.448 181.215 194.5C174.887 194.151 168.471 193.143 162.063 191.426C156.721 189.995 151.62 188.134 146.795 185.896C126.827 194.282 101.634 194.255 77.8727 183.886C36.5654 165.86 15.2297 123.404 30.2181 89.0569C44.1578 57.1131 84.6071 43.434 123.429 56.1769C143.794 39.1298 173.303 32.1231 202.642 39.9846C231.79 47.7947 253.745 68.3971 262.967 93.1264Z"/>
</mask>
<path fill-rule="evenodd" clip-rule="evenodd" d="M262.967 93.1264C305.499 101.764 334.766 136.741 328.826 172.709C322.719 209.683 281.721 233.703 237.255 226.359C213.591 222.45 193.714 210.448 181.215 194.5C174.887 194.151 168.471 193.143 162.063 191.426C156.721 189.995 151.62 188.134 146.795 185.896C126.827 194.282 101.634 194.255 77.8727 183.886C36.5654 165.86 15.2297 123.404 30.2181 89.0569C44.1578 57.1131 84.6071 43.434 123.429 56.1769C143.794 39.1298 173.303 32.1231 202.642 39.9846C231.79 47.7947 253.745 68.3971 262.967 93.1264Z" fill="white"/>
<path d="M328.826 172.709L333.897 173.547L328.826 172.709ZM262.967 93.1264L258.151 94.9225L259.148 97.5962L261.944 98.1641L262.967 93.1264ZM237.255 226.359L238.092 221.287L237.255 226.359ZM181.215 194.5L185.26 191.329L183.823 189.496L181.498 189.367L181.215 194.5ZM146.795 185.896L148.958 181.233L146.898 180.278L144.805 181.157L146.795 185.896ZM77.8727 183.886L75.8168 188.597L75.8168 188.597L77.8727 183.886ZM30.2181 89.0569L25.5067 87.0009L30.2181 89.0569ZM123.429 56.1769L121.825 61.061L124.538 61.9515L126.728 60.1187L123.429 56.1769ZM333.897 173.547C340.421 134.048 308.359 97.099 263.99 88.0888L261.944 98.1641C302.64 106.428 329.111 139.433 323.754 171.871L333.897 173.547ZM236.417 231.43C282.768 239.086 327.19 214.158 333.897 173.547L323.754 171.871C318.248 205.208 280.674 228.32 238.092 221.287L236.417 231.43ZM177.169 197.671C190.511 214.694 211.564 227.326 236.417 231.43L238.092 221.287C215.618 217.575 196.917 206.201 185.26 191.329L177.169 197.671ZM181.498 189.367C175.523 189.038 169.458 188.086 163.394 186.461L160.733 196.392C167.484 198.201 174.251 199.264 180.932 199.633L181.498 189.367ZM163.394 186.461C158.338 185.106 153.515 183.346 148.958 181.233L144.633 190.56C149.725 192.921 155.104 194.884 160.733 196.392L163.394 186.461ZM75.8168 188.597C100.764 199.484 127.422 199.607 148.786 190.636L144.805 181.157C126.232 188.956 102.503 189.026 79.9287 179.175L75.8168 188.597ZM25.5067 87.0009C9.04391 124.726 32.7587 169.808 75.8168 188.597L79.9287 179.175C40.3721 161.913 21.4154 122.081 34.9295 91.1129L25.5067 87.0009ZM125.032 51.2928C84.482 37.9826 40.8098 51.9329 25.5067 87.0009L34.9295 91.1129C47.5058 62.2934 84.7323 48.8854 121.825 61.061L125.032 51.2928ZM126.728 60.1187C145.766 44.1828 173.535 37.5072 201.312 44.9499L203.973 35.0193C173.071 26.7391 141.822 34.0767 120.129 52.2351L126.728 60.1187ZM201.312 44.9499C228.907 52.3439 249.529 71.8021 258.151 94.9225L267.783 91.3304C257.962 64.992 234.674 43.2455 203.973 35.0193L201.312 44.9499Z" fill="#007A89" mask="url(#path-1-inside-1_643_1896)"/>
<circle cx="145.379" cy="104.734" r="11.566" transform="rotate(15 145.379 104.734)" fill="#007A89"/>
<circle cx="147.957" cy="101.567" r="4.24088" transform="rotate(15 147.957 101.567)" fill="white"/>
<circle cx="203.092" cy="120.73" r="11.566" transform="rotate(15 203.092 120.73)" fill="#007A89"/>
<circle cx="205.67" cy="117.563" r="4.24088" transform="rotate(15 205.67 117.563)" fill="white"/>
<circle cx="11.566" cy="11.566" r="11.566" transform="matrix(-0.965926 -0.258819 -0.258819 0.965926 217.257 112.552)" fill="#007A89"/>
<circle cx="4.24088" cy="4.24088" r="4.24088" transform="matrix(-0.965926 -0.258819 -0.258819 0.965926 207.637 113.699)" fill="white"/>
<path d="M216.979 224.231L164.341 239.582C156.784 243.594 150.653 239.006 150.653 239.006L111.229 221.444C110.465 221.101 109.91 220.417 109.736 219.589L97.4679 161.123C97.2129 159.919 98.3851 158.918 99.5369 159.351L102.11 160.32L141.822 175.249C141.822 175.249 144.986 176.897 148.917 176.495C149.275 176.458 149.638 176.403 150.006 176.328C151.597 176.008 153.271 175.322 154.881 174.042L203.916 158.151L210.907 155.888C212.141 155.489 213.43 156.349 213.528 157.643L218.65 221.809C218.738 222.912 218.036 223.923 216.979 224.231Z" fill="#3395A1"/>
<path d="M203.916 158.151L154.881 174.042C153.27 175.324 151.597 176.01 150.006 176.33C152.663 173.094 160.243 165.024 173.64 159.639C181.484 156.484 191.307 154.25 203.309 154.444C203.309 154.444 202.901 156.743 203.916 158.151ZM172.735 145.326C172.735 145.326 151.983 153.856 149.22 172.693L149.225 172.695C149.202 172.813 149.183 172.933 149.173 173.055C149.02 174.171 148.927 175.315 148.917 176.495C149.275 176.458 149.638 176.403 150.006 176.328C152.663 173.092 160.243 165.022 173.641 159.638C171.893 153.477 172.735 145.326 172.735 145.326ZM127.821 163.346C117.372 156.347 113.166 149.227 113.166 149.227C113.166 149.227 112.031 155.697 112.898 159.146L139.29 169.552C134.833 167.634 131.033 165.494 127.821 163.346ZM148.917 176.497C144.988 176.898 141.822 175.25 141.822 175.25L102.11 160.32L105.728 157.468C106.361 157.004 107.185 156.897 107.914 157.185L112.896 159.145L139.288 169.552C134.831 167.633 131.031 165.494 127.819 163.347C127.499 154.982 132.143 143.105 132.143 143.105C131.744 158.891 148.595 170.036 148.917 176.497Z" fill="#E6F2F3"/>
<g filter="url(#filter1_f_643_1896)">
<ellipse cx="108.075" cy="120.815" rx="14.3933" ry="6.93963" transform="rotate(15 108.075 120.815)" fill="#F9BFBF"/>
</g>
<g filter="url(#filter2_f_643_1896)">
<ellipse cx="221.78" cy="151.283" rx="14.3933" ry="6.93963" transform="rotate(15 221.78 151.283)" fill="#F9BFBF"/>
</g>
</g>
<path d="M168.244 143.59C163.432 142.497 161.281 136.176 160.484 132.938C160.263 132.04 161.085 131.294 161.978 131.533L179.66 136.271C180.563 136.513 180.895 137.588 180.233 138.248C177.921 140.554 173.002 144.671 168.244 143.59Z" fill="#006F7D"/>
<defs>
<filter id="filter0_d_643_1896" x="24.3968" y="36.7716" width="306.222" height="206.512" filterUnits="userSpaceOnUse" color-interpolation-filters="sRGB">
<feFlood flood-opacity="0" result="BackgroundImageFix"/>
<feColorMatrix in="SourceAlpha" type="matrix" values="0 0 0 0 0 0 0 0 0 0 0 0 0 0 0 0 0 0 127 0" result="hardAlpha"/>
<feOffset dy="1.02809"/>
<feGaussianBlur stdDeviation="0.514047"/>
<feComposite in2="hardAlpha" operator="out"/>
<feColorMatrix type="matrix" values="0 0 0 0 0 0 0 0 0 0 0 0 0 0 0 0 0 0 0.25 0"/>
<feBlend mode="normal" in2="BackgroundImageFix" result="effect1_dropShadow_643_1896"/>
<feBlend mode="normal" in="SourceGraphic" in2="effect1_dropShadow_643_1896" result="shape"/>
</filter>
<filter id="filter1_f_643_1896" x="76.0633" y="95.1535" width="64.0232" height="51.3236" filterUnits="userSpaceOnUse" color-interpolation-filters="sRGB">
<feFlood flood-opacity="0" result="BackgroundImageFix"/>
<feBlend mode="normal" in="SourceGraphic" in2="BackgroundImageFix" result="shape"/>
<feGaussianBlur stdDeviation="8.99582" result="effect1_foregroundBlur_643_1896"/>
</filter>
<filter id="filter2_f_643_1896" x="189.769" y="125.621" width="64.0232" height="51.3236" filterUnits="userSpaceOnUse" color-interpolation-filters="sRGB">
<feFlood flood-opacity="0" result="BackgroundImageFix"/>
<feBlend mode="normal" in="SourceGraphic" in2="BackgroundImageFix" result="shape"/>
<feGaussianBlur stdDeviation="8.99582" result="effect1_foregroundBlur_643_1896"/>
</filter>
</defs>
</svg>
