<svg width="529" height="558" viewBox="0 0 529 558" fill="none" xmlns="http://www.w3.org/2000/svg">
<path fill-rule="evenodd" clip-rule="evenodd" d="M74.506 154.735C107.848 109.256 177.832 125.66 232.691 110.479C272.217 99.5406 307.538 67.8499 346.882 79.3606C387.603 91.2738 415.641 128.761 429.835 168.155C442.842 204.256 422.622 240.054 418.508 278.15C411.675 341.421 452.977 426.771 398.241 460.681C345.073 493.62 288.132 417.763 229.697 395.123C174.169 373.61 101.358 382.823 69.3625 333.263C35.6455 281.035 37.6984 204.941 74.506 154.735Z" stroke="#54C7D5" stroke-width="5"/>
<path fill-rule="evenodd" clip-rule="evenodd" d="M260.61 178.785C301.461 180.275 334.613 204.726 367.394 229.376C409.183 260.8 466.116 285.812 472.401 338.043C478.964 392.578 435.587 438.284 397.221 477.25C358.431 516.647 313.419 558.799 258.52 555.27C205.136 551.838 168.734 503.183 136.021 460.458C108.182 424.098 88.6166 381.915 90.6292 335.994C92.568 291.755 114.157 251.23 146.502 221.316C177.584 192.569 218.493 177.248 260.61 178.785Z" stroke="#007A89" stroke-width="5"/>
<path fill-rule="evenodd" clip-rule="evenodd" d="M270.541 150.076C338.517 151.895 385.258 200.337 410.746 255.992C445.746 332.419 491.82 425.344 421.396 479.485C337.381 544.075 205.197 542.617 119.077 480.225C43.8756 425.744 64.9683 327.314 101.485 247.718C129.431 186.803 196.123 148.085 270.541 150.076Z" fill="#3395A1"/>
<path d="M264.75 363.955C276.828 365.064 289.51 355.636 289.51 355.636C289.51 355.636 312.455 355.636 331.174 362.846C346.633 368.839 370.306 408.564 377.552 420.771C359.438 438.523 334.796 446.067 334.796 446.067C334.796 446.067 333.592 443.849 330.574 439.966C330.574 444.403 324.533 514.309 324.533 514.309C324.533 514.309 315.837 515.973 291.923 522.078C268.014 528.179 187.458 519.301 186.249 514.864C187.458 508.208 191.081 470.48 191.081 470.48L166.926 462.711L168.135 398.356C168.135 398.356 176.59 381.712 192.29 367.287C207.99 352.862 246.032 353.417 246.032 353.417C247.241 358.963 252.673 362.846 264.75 363.955ZM264.75 363.955C276.828 365.064 289.51 355.636 289.51 355.636C289.51 355.636 312.455 355.636 331.174 362.846C346.633 368.839 370.306 408.564 377.552 420.771C359.438 438.523 334.796 446.067 334.796 446.067C334.796 446.067 333.592 443.849 330.574 439.966C330.574 444.403 324.533 514.309 324.533 514.309C324.533 514.309 315.837 515.973 291.923 522.078C268.014 528.179 187.458 519.301 186.249 514.864C187.458 508.208 191.081 470.48 191.081 470.48L166.926 462.711L168.135 398.356C168.135 398.356 176.59 381.712 192.29 367.287C207.99 352.862 246.032 353.417 246.032 353.417C247.241 358.963 252.673 362.846 264.75 363.955Z" fill="#54C5B5"/>
<path d="M327.02 311.669C327.02 323.832 314.926 328.26 308.876 324.943C307.306 333.348 300.897 341.866 289.527 346.289V355.912C289.527 355.912 285.9 362.546 270.178 365.864C254.457 369.185 245.99 359.229 245.99 357.018C245.99 355.467 245.385 350.712 245.026 343.412C233.537 336.665 229.422 324.943 230.269 312.775C219.386 314.986 213.341 307.242 213.341 299.502C213.341 295.519 215.635 291.204 218.781 288.881C219.991 283.905 236.318 284.017 241.152 280.695C255.667 269.638 262.923 260.788 262.923 260.788C262.923 260.788 266.55 274.061 283.483 289.546C293.883 299.057 301.621 291.757 299.204 286.229C302.832 291.757 327.261 298.837 326.291 306.801C326.291 306.909 326.291 306.909 326.414 307.022C326.774 308.127 327.02 309.678 327.02 311.669ZM191.571 442.186C191.571 442.186 181.898 439.974 178.266 439.974C179.477 424.49 176.454 385.223 178.871 376.373C181.293 367.527 182.863 366.641 181.293 359.782C178.266 347.062 165.33 338.544 160.733 334.341C156.5 330.471 155.289 341.533 160.128 349.273C154.083 339.322 145.011 329.918 134.128 327.707C123.245 325.495 107.524 329.918 119.613 339.874C131.707 349.826 126.873 346.509 126.873 346.509C126.873 346.509 118.889 342.306 117.196 345.403C113.568 352.038 137.756 368.632 146.222 381.906C152.026 390.864 113.327 481.008 151.056 492.515C161.944 495.832 182.499 490.299 190.965 470.391C193.387 449.373 191.571 442.186 191.571 442.186ZM340.561 444.065L349.996 460.988C349.996 460.988 331.248 481.453 321.576 491.405C310.087 496.385 302.832 495.279 294.366 499.702C273.929 510.319 271.389 525.143 277.433 529.566C279.855 531.337 283.483 531.777 288.316 529.566C293.155 531.777 305.126 526.469 312.504 521.825C320.365 522.378 332.459 516.845 335.481 508.552C342.736 503.019 385.673 478.136 386.879 462.647C388.089 447.162 372.973 425.263 372.973 425.263C372.973 425.263 356.405 437.763 340.561 444.065Z" fill="#FFBCB2"/>
<path d="M244.518 343.779C255.185 349.324 267.914 351.427 279.913 349.324C283.308 348.77 286.702 347.77 289.855 346.549C290.338 346.329 290.462 345.775 290.215 345.441C289.973 345 289.371 345 289.006 345.108C278.098 349.324 265.734 349.545 254.578 346.108C251.426 345.108 248.396 343.892 245.486 342.338C244.518 341.896 243.547 343.225 244.518 343.779ZM226.698 304.323C226.091 300.44 224.64 296.783 222.213 293.572C221.488 292.684 219.909 293.572 220.639 294.459C222.213 296.562 223.427 298.891 224.152 301.328C223.792 301.107 223.427 300.999 223.062 300.774C222.213 300.44 221.246 300.553 220.516 301.107C219.909 301.553 219.549 302.436 219.79 303.102C220.032 303.544 220.397 303.769 220.881 303.656C221.364 303.544 221.729 303.102 221.488 302.661C221.364 302.436 221.488 302.328 221.729 302.215C222.213 302.107 222.697 302.436 223.062 302.661C223.792 303.102 224.394 303.877 224.759 304.764C224.882 305.098 225.242 305.431 225.731 305.318C226.091 305.21 226.579 304.877 226.579 304.544C226.698 304.431 226.698 304.431 226.698 304.323ZM314.459 316.957C315.066 316.845 315.55 316.403 316.157 316.291C316.645 316.291 317.129 316.403 317.37 316.845C317.494 317.178 317.37 317.624 317.005 317.844C316.038 318.398 316.887 319.84 317.977 319.286C319.551 318.511 319.793 316.403 318.461 315.295C317.735 314.741 316.887 314.52 315.915 314.628C315.796 314.628 315.673 314.628 315.673 314.741C317.494 312.633 319.551 310.638 321.855 308.976C322.704 308.314 321.49 307.093 320.523 307.76C317.612 309.976 314.948 312.633 312.762 315.516C312.52 315.737 312.644 316.07 312.762 316.403C313.004 316.957 313.734 317.07 314.459 316.957ZM269.488 316.291C269.853 316.403 270.579 316.182 270.579 315.737C271.55 309.422 271.309 303.102 272.276 296.896C272.399 296.454 272.157 296.008 271.669 295.9C271.309 295.788 270.579 296.008 270.579 296.454C269.611 302.769 269.853 309.088 268.881 315.295C268.763 315.737 269.005 316.07 269.488 316.291ZM254.095 284.815C257.973 284.815 261.491 282.374 262.699 279.05C262.823 278.609 262.581 278.163 262.093 278.055C261.609 277.942 261.125 278.163 261.002 278.609C260.035 281.266 257.124 283.153 254.095 283.153C252.881 283.153 252.881 284.815 254.095 284.815ZM269.005 332.032C271.309 327.929 275.428 325.047 280.278 324.051C281.369 323.83 280.885 322.277 279.795 322.497C274.461 323.497 269.853 326.821 267.431 331.145C266.942 332.141 268.521 332.92 269.005 332.032ZM133.844 342.559C135.423 344.113 136.879 345.662 138.329 347.216C139.059 347.991 140.392 346.883 139.666 345.995C137.239 343.446 134.816 340.897 132.029 338.46C129.601 336.465 127.056 334.582 124.268 333.14C122.329 332.032 120.272 331.145 118.209 330.258C117.119 329.816 116.27 331.253 117.237 331.699C120.513 333.14 123.785 334.69 126.814 336.685C129.483 338.347 131.664 340.455 133.844 342.559ZM142.696 336.685C141.482 335.469 140.026 334.248 138.694 333.14C136.879 331.812 135.181 330.479 133.238 329.262C131.057 327.929 128.753 326.821 126.089 326.38C124.998 326.159 124.515 327.708 125.605 327.929C130.09 328.817 133.726 331.478 137.12 334.028C139.666 335.911 141.847 338.018 143.663 340.343C144.876 341.896 146.09 343.446 147.422 345C148.147 345.887 149.484 344.667 148.754 343.779C146.574 341.563 144.876 338.901 142.696 336.685ZM162.09 348.211C161.725 347.882 161.365 347.549 160.877 347.328C160.758 347.328 160.758 347.216 160.635 347.216C160.393 347.103 160.27 346.883 160.151 346.774C159.668 346.329 159.179 345.887 158.819 345.333C158.572 345 157.847 345 157.482 345.333C157.122 345.662 157.122 346.108 157.482 346.549C157.847 347.103 158.331 347.549 158.819 347.991C159.179 348.324 159.544 348.657 160.028 348.878C160.151 348.878 160.151 348.991 160.27 348.991C160.516 349.099 160.635 349.324 160.758 349.432C161.242 349.878 161.725 350.319 162.09 350.873C162.332 351.207 163.057 351.207 163.422 350.873C163.787 350.54 163.787 350.099 163.422 349.653C163.057 349.099 162.574 348.657 162.09 348.211ZM307.429 516.13C300.28 518.572 293.733 522.895 288.641 528.215C287.916 528.99 289.125 530.21 289.973 529.431C294.823 524.445 301.005 520.121 307.917 517.797C309.008 517.463 308.519 515.801 307.429 516.13ZM297.976 512.365C294.098 514.468 290.58 517.018 287.067 519.567C283.673 522.229 280.278 524.999 277.249 528.102C276.4 528.877 277.732 530.098 278.581 529.323C281.61 526.328 284.763 523.558 288.158 521.008C291.552 518.459 295.065 515.91 298.824 513.914C299.915 513.252 299.066 511.811 297.976 512.365ZM295.188 507.045C296.155 506.491 295.307 505.05 294.216 505.604C286.337 509.815 279.548 515.576 274.461 522.337C273.855 523.224 275.428 524.003 276.035 523.224C281.127 516.576 287.674 511.032 295.188 507.045ZM366.708 453.622C363.797 452.955 360.644 453.397 357.857 454.284C354.946 455.171 352.04 456.725 349.978 458.829C349.252 459.603 350.461 460.824 351.31 460.049C353.13 458.054 355.676 456.725 358.34 455.946C360.886 455.171 363.555 454.73 366.22 455.284C367.31 455.505 367.917 453.842 366.708 453.622ZM177.607 426.687C177.725 438.213 177.242 449.852 176.028 461.378C175.91 462.486 177.725 462.486 177.849 461.378C178.939 449.852 179.423 438.213 179.423 426.687C179.423 425.579 177.607 425.579 177.607 426.687ZM326.823 429.79C325.373 427.241 323.917 424.804 322.462 422.363C321.007 419.926 319.551 417.485 318.584 414.936C318.219 413.94 316.398 414.382 316.887 415.382C318.461 419.48 321.007 423.138 323.187 427.02C325.491 431.011 327.672 435.11 329.858 439.1C331.066 441.429 332.403 443.645 333.854 445.861C334.461 446.748 336.04 445.974 335.433 444.974C332.28 439.988 329.611 434.889 326.823 429.79ZM254.46 373.705C260.035 375.259 265.852 375.367 271.55 374.705C277.249 374.038 282.943 372.709 287.792 369.827C292.642 367.057 296.644 362.512 297.492 357.193C297.611 356.747 297.369 356.305 296.885 356.193C296.402 356.085 295.795 356.305 295.795 356.747C295.065 361.071 292.159 364.949 288.276 367.498C283.915 370.381 278.7 371.935 273.366 372.709C263.306 374.259 251.791 373.263 244.277 366.282C240.64 362.953 238.336 358.521 238.213 353.864C238.213 352.756 236.397 352.756 236.397 353.864C236.639 363.287 245.002 370.935 254.46 373.705ZM192.517 409.283C192.033 425.466 191.545 441.762 190.578 457.941C190.336 461.932 190.089 465.923 189.729 469.913C189.606 471.021 191.426 471.021 191.545 469.913C192.758 454.617 193.365 439.321 193.849 424.138C193.972 419.26 194.091 414.274 194.332 409.396C194.456 408.288 192.635 408.288 192.517 409.283ZM190.454 421.588C190.938 421.368 190.938 420.814 190.819 420.48C189.848 418.485 189.241 416.377 188.757 414.274C188.639 413.828 188.032 413.607 187.667 413.72C187.183 413.828 186.941 414.274 187.06 414.715C187.544 416.931 188.274 419.152 189.364 421.255C189.364 421.809 190.089 421.809 190.454 421.588ZM315.308 420.034C314.948 419.706 314.341 419.706 313.976 420.034C313.611 420.368 313.611 420.922 313.976 421.255C316.157 423.584 318.342 425.912 320.523 428.237C320.883 428.57 321.49 428.57 321.855 428.237C322.22 427.908 322.22 427.354 321.855 427.02C319.674 424.692 317.494 422.363 315.308 420.034ZM278.946 480.444C266.824 472.463 255.911 462.819 246.699 452.068C244.153 448.965 241.608 445.861 239.304 442.537C238.701 441.65 237.123 442.425 237.73 443.424C246.092 455.059 256.157 465.589 267.791 474.679C271.067 477.228 274.461 479.665 277.974 481.993C278.946 482.547 279.913 481.106 278.946 480.444ZM128.269 345.554C127.302 345 126.33 346.441 127.302 346.995C131.905 349.878 135.181 353.977 139.059 357.526C139.908 358.301 141.117 357.08 140.392 356.305C136.514 352.648 132.996 348.436 128.269 345.554ZM161.365 353.643C157.724 359.517 156.757 366.503 158.572 373.043C158.819 374.038 160.635 373.597 160.27 372.597C158.572 366.503 159.544 359.963 162.939 354.422C163.546 353.643 161.967 352.756 161.365 353.643ZM228.883 288.694C228.883 294.234 234.942 293.126 239.792 289.802C254.337 278.717 260.395 265.416 260.395 265.416C260.395 265.416 264.036 278.717 281.004 294.234C291.429 303.769 296.762 298.67 294.34 293.126C297.976 298.67 311.312 314.187 317.37 303.102C317.37 303.102 324.036 300.112 326.34 305.985C331.915 300.332 335.793 291.355 334.342 279.825C331.915 259.876 318.584 241.035 291.912 236.599C253.123 226.626 228.883 245.467 220.397 263.2C215.424 273.618 216.638 282.487 218.577 288.027C221.606 285.923 225.366 285.478 228.883 288.694ZM257.731 301.882C257.489 303.99 255.792 305.652 254.095 305.431C252.398 305.21 251.065 303.323 251.426 301.22C251.672 299.112 253.365 297.45 255.062 297.67C256.759 297.783 257.973 299.666 257.731 301.882ZM292.277 305.872C292.035 307.98 290.338 309.642 288.641 309.422C286.825 309.197 285.612 307.314 285.977 305.21C286.219 303.102 287.916 301.44 289.613 301.661C291.31 301.774 292.519 303.656 292.277 305.872Z" fill="black"/>
<mask id="mask0_643_1418" style="mask-type:luminance" maskUnits="userSpaceOnUse" x="250" y="173" width="56" height="49">
<path d="M250.881 173H305.381V221.487H250.881V173Z" fill="white"/>
</mask>
<g mask="url(#mask0_643_1418)">
<path d="M284.853 217.734C285.336 218.62 285.218 219.615 284.612 220.393C284.371 220.722 284.006 221.055 283.642 221.167C283.16 221.388 282.677 221.5 282.19 221.388C281.225 221.275 280.378 220.834 279.895 220.06C279.408 219.174 279.531 218.175 280.137 217.401C280.619 216.627 281.589 216.294 282.554 216.294C283.642 216.407 284.489 216.96 284.853 217.734ZM266.71 214.521C265.741 214.413 264.771 214.854 264.288 215.628C263.683 216.407 263.683 217.401 264.047 218.287C264.53 219.061 265.376 219.615 266.346 219.615C266.829 219.615 267.311 219.507 267.799 219.394C268.158 219.174 268.522 218.953 268.764 218.62C269.369 217.846 269.369 216.848 269.005 215.961C268.522 215.075 267.676 214.634 266.71 214.521ZM302.031 177.099C300.096 174.66 297.191 173.445 293.927 173.553C289.452 173.666 285.577 176.654 283.16 181.639C283.037 181.859 283.037 182.08 282.918 182.301L287.635 184.294C287.876 184.073 288.118 183.853 288.241 183.52C289.329 181.194 291.264 179.425 292.957 178.872C294.045 178.539 295.015 178.647 296.103 179.2C299.126 180.64 299.609 184.627 298.885 187.619C298.644 188.834 297.915 190.607 296.468 191.713C295.621 192.379 294.528 192.82 293.44 193.374C292.716 193.707 291.869 194.04 291.141 194.481C287.029 196.807 284.612 201.234 284.612 206.22C284.612 206.44 284.612 206.661 284.73 206.881L290.175 206.553C290.175 206.44 290.175 206.44 290.175 206.328C290.175 204.335 290.658 202.566 291.505 201.126C292.352 199.907 293.44 198.913 295.498 198.026L295.739 197.914C297.433 197.14 299.249 196.253 300.697 194.926C302.031 193.707 302.996 192.159 303.725 190.274C305.418 185.846 304.69 180.42 302.031 177.099ZM269.734 175.547C266.71 173.225 262.23 173 258.602 175.106C254.614 177.432 252.073 181.859 251.586 187.394C251.586 187.727 251.586 188.06 251.709 188.28L257.031 188.501C257.154 188.28 257.154 188.06 257.272 187.727C257.514 184.073 259.33 179.533 263.323 178.759C264.411 178.539 265.258 178.759 265.982 179.313C267.311 180.199 268.281 182.192 268.522 184.406C268.764 186.287 268.281 188.06 267.311 189.612C266.71 190.607 265.982 191.493 265.258 192.379C264.653 193.153 263.924 193.927 263.441 194.814C260.66 198.913 260.177 203.781 261.989 208.101C262.112 208.321 262.23 208.542 262.353 208.766L267.311 206.881C267.311 206.661 267.193 206.328 267.193 206.107C265.499 202.121 267.434 198.359 269.369 195.92C272.033 192.6 274.209 189.5 274.209 185.293C274.086 181.194 272.392 177.652 269.734 175.547Z" fill="#FF0004"/>
</g>
</svg>
